<svg xmlns="http://www.w3.org/2000/svg" width="148" height="36" viewBox="0 0 148 36">
                            <g fill="none" fill-rule="nonzero">
                                <path stroke="#113076" d="M27.866 28.58h-.94v3.706c0 .83-.659 1.516-1.475 1.516H2.915c-.816 0-1.474-.687-1.474-1.516v-.915h21.48c.788 0 1.44-.68 1.44-1.525V2.691c0-.849-.649-1.524-1.44-1.524H1.94C1.152 1.167.5 1.847.5 2.69v29.602c0 1.402 1.09 2.54 2.415 2.54H25.45c1.324 0 2.415-1.138 2.415-2.54V28.58z"></path>
                                <path fill="#FF9400" d="M28.46 12.667h-2.796V18h2.796c.695 0 1.257-.488 1.257-1.091v-3.151c0-.604-.562-1.091-1.257-1.091zM28.46 20.667h-2.796V26h2.796c.695 0 1.257-.488 1.257-1.091v-3.151c0-.604-.562-1.091-1.257-1.091zM28.46 6h-2.796v5.333h2.796c.695 0 1.257-.487 1.257-1.09V7.09c0-.603-.562-1.091-1.257-1.091z"></path>
                                <path fill="#113076" d="M0 26.744V22.96a.925.925 0 0 1 .38.47l.572 1.59a7.727 7.727 0 0 0 1.649 0l.572-1.59a.927.927 0 0 1 .615-.576 7.117 7.117 0 0 0 1.37-.555.942.942 0 0 1 .847-.023l1.536.72a8.959 8.959 0 0 0 1.167-1.152l-.73-1.517a.912.912 0 0 1 .023-.836c.23-.416.42-.87.564-1.35a.925.925 0 0 1 .582-.608l1.61-.565c.031-.29.046-.556.046-.814 0-.258-.015-.524-.045-.813l-1.61-.566a.925.925 0 0 1-.583-.607A6.914 6.914 0 0 0 8 12.817a.91.91 0 0 1-.023-.836l.73-1.516a9.018 9.018 0 0 0-1.167-1.153l-1.536.72a.94.94 0 0 1-.847-.022 7.094 7.094 0 0 0-1.37-.556.929.929 0 0 1-.615-.575l-.572-1.59a7.647 7.647 0 0 0-1.649 0L.38 8.88a.924.924 0 0 1-.38.47V5.564c.04-.011.08-.02.122-.027 1.209-.183 2.102-.183 3.309 0a.93.93 0 0 1 .737.602l.611 1.695c.288.1.568.213.838.34l1.643-.771a.942.942 0 0 1 .954.09c.893.646 1.68 1.423 2.338 2.306a.912.912 0 0 1 .09.942l-.78 1.623c.127.267.242.543.344.826l1.716.603a.924.924 0 0 1 .61.73c.094.607.138 1.125.138 1.631s-.044 1.025-.137 1.632a.924.924 0 0 1-.61.73l-1.717.602c-.102.284-.217.56-.345.827l.782 1.622a.912.912 0 0 1-.091.941 10.846 10.846 0 0 1-2.338 2.308.942.942 0 0 1-.954.09l-1.643-.77c-.27.125-.55.239-.838.339l-.61 1.694a.93.93 0 0 1-.739.602 10.95 10.95 0 0 1-1.654.136c-.509 0-1.05-.044-1.654-.136A.947.947 0 0 1 0 26.744zm0-6.917V17.61a2.464 2.464 0 0 0 1.777.752c1.353 0 2.455-1.087 2.455-2.424 0-1.336-1.102-2.423-2.455-2.423-.699 0-1.33.289-1.777.752v-2.218a4.345 4.345 0 0 1 1.777-.378c2.383 0 4.322 1.915 4.322 4.267 0 2.353-1.939 4.268-4.322 4.268A4.346 4.346 0 0 1 0 19.827z"></path>
                                <g>
                                    <path fill="#032F7B" d="M40.497 25.296a.509.509 0 0 1-.357-.128.44.44 0 0 1-.14-.341V10.853c0-.156.047-.277.14-.362a.509.509 0 0 1 .357-.128h.54c.216 0 .367.092.453.277l4.904 9.43 4.924-9.43a.487.487 0 0 1 .454-.277h.518c.159 0 .281.042.368.128.086.085.13.206.13.362v13.974a.44.44 0 0 1-.141.341.509.509 0 0 1-.357.128h-.388a.47.47 0 0 1-.346-.128.458.458 0 0 1-.13-.341V13.264l-4.125 8.021c-.13.285-.353.427-.67.427h-.475c-.317 0-.54-.142-.67-.427l-4.125-8.021v11.563a.458.458 0 0 1-.13.341.47.47 0 0 1-.345.128h-.39zm18.862.213a4.37 4.37 0 0 1-1.923-.426 3.7 3.7 0 0 1-1.415-1.152 2.654 2.654 0 0 1-.529-1.6c0-.939.385-1.707 1.156-2.304.77-.598 1.81-.982 3.121-1.152l3.413-.47v-.746c0-.783-.241-1.383-.724-1.803-.482-.42-1.22-.63-2.214-.63-.734 0-1.335.143-1.803.427-.468.285-.767.626-.897 1.024-.057.171-.126.288-.205.352a.483.483 0 0 1-.313.096h-.303a.46.46 0 0 1-.334-.138.449.449 0 0 1-.14-.331c0-.313.143-.68.431-1.099.288-.42.735-.785 1.34-1.098.604-.313 1.346-.47 2.224-.47 1.541 0 2.635.363 3.283 1.088.648.726.972 1.607.972 2.646v7.104a.458.458 0 0 1-.13.341.47.47 0 0 1-.345.128h-.367a.47.47 0 0 1-.346-.128.458.458 0 0 1-.13-.341v-1.003c-.316.47-.78.868-1.392 1.195-.612.327-1.422.49-2.43.49zm.216-1.237c1.05 0 1.915-.341 2.592-1.024.676-.683 1.015-1.664 1.015-2.944v-.725l-2.787.384c-1.18.156-2.073.426-2.678.81-.605.384-.907.868-.907 1.451 0 .654.277 1.16.831 1.515.555.355 1.2.533 1.934.533zm8.58 1.024a.47.47 0 0 1-.346-.128.458.458 0 0 1-.13-.341V14.672c0-.142.044-.256.13-.341a.47.47 0 0 1 .346-.128h.367a.47.47 0 0 1 .346.128c.086.085.13.199.13.341v1.003c.431-.555.924-.975 1.479-1.259.554-.284 1.27-.427 2.149-.427 1.411 0 2.498.445 3.262 1.334.763.889 1.144 2.037 1.144 3.445v6.059a.458.458 0 0 1-.13.341.47.47 0 0 1-.345.128h-.367a.47.47 0 0 1-.346-.128.458.458 0 0 1-.13-.341v-5.952c0-1.152-.284-2.048-.852-2.688-.57-.64-1.386-.96-2.452-.96-1.037 0-1.865.323-2.484.97-.62.647-.929 1.54-.929 2.678v5.952a.458.458 0 0 1-.13.341.47.47 0 0 1-.345.128h-.367zm16.248.213c-1.411 0-2.484-.44-3.218-1.322-.735-.882-1.102-2.034-1.102-3.456v-6.059c0-.142.043-.256.13-.341a.47.47 0 0 1 .345-.128h.367a.47.47 0 0 1 .346.128c.086.085.13.199.13.341v5.952c0 2.432 1.072 3.648 3.218 3.648 1.037 0 1.861-.324 2.473-.97.612-.648.918-1.54.918-2.678v-5.952c0-.142.043-.256.13-.341a.47.47 0 0 1 .345-.128h.368a.47.47 0 0 1 .345.128c.087.085.13.199.13.341v10.155a.458.458 0 0 1-.13.341.47.47 0 0 1-.345.128h-.368a.47.47 0 0 1-.345-.128.458.458 0 0 1-.13-.341v-1.003c-.432.555-.925.974-1.48 1.259-.554.284-1.263.426-2.127.426zm11.215 0a4.37 4.37 0 0 1-1.922-.426 3.7 3.7 0 0 1-1.415-1.152 2.654 2.654 0 0 1-.53-1.6c0-.939.386-1.707 1.157-2.304.77-.598 1.81-.982 3.12-1.152l3.414-.47v-.746c0-.783-.242-1.383-.724-1.803-.482-.42-1.22-.63-2.214-.63-.734 0-1.336.143-1.804.427-.468.285-.766.626-.896 1.024-.058.171-.126.288-.205.352a.483.483 0 0 1-.313.096h-.303a.46.46 0 0 1-.335-.138.449.449 0 0 1-.14-.331c0-.313.144-.68.432-1.099.288-.42.734-.785 1.34-1.098.604-.313 1.346-.47 2.224-.47 1.54 0 2.635.363 3.283 1.088.648.726.972 1.607.972 2.646v7.104a.458.458 0 0 1-.13.341.47.47 0 0 1-.345.128h-.367a.47.47 0 0 1-.346-.128.458.458 0 0 1-.13-.341v-1.003c-.316.47-.78.868-1.393 1.195-.612.327-1.422.49-2.43.49zm.216-1.237c1.052 0 1.916-.341 2.592-1.024.677-.683 1.016-1.664 1.016-2.944v-.725l-2.787.384c-1.18.156-2.073.426-2.678.81-.605.384-.907.868-.907 1.451 0 .654.277 1.16.831 1.515.555.355 1.199.533 1.933.533zm8.602 1.024a.47.47 0 0 1-.345-.128.458.458 0 0 1-.13-.341V10.619c0-.143.043-.256.13-.342a.47.47 0 0 1 .345-.128h.367a.47.47 0 0 1 .346.128c.086.086.13.2.13.342v14.208a.458.458 0 0 1-.13.341.47.47 0 0 1-.346.128h-.367zm7.695.213c-.936 0-1.725-.156-2.365-.469-.641-.313-1.124-.668-1.448-1.067-.324-.398-.486-.718-.486-.96 0-.128.05-.23.152-.309a.519.519 0 0 1 .324-.117h.324c.1 0 .183.017.248.053s.14.11.227.224c.317.44.702.786 1.155 1.035.454.249 1.077.373 1.869.373.893 0 1.613-.167 2.16-.501.547-.335.82-.815.82-1.44 0-.384-.111-.697-.334-.939-.223-.242-.583-.452-1.08-.63-.497-.177-1.235-.38-2.214-.607-1.282-.285-2.157-.676-2.625-1.174-.468-.497-.702-1.13-.702-1.898 0-.527.148-1.024.443-1.494.295-.469.735-.853 1.318-1.152.583-.298 1.285-.448 2.106-.448.864 0 1.595.146 2.192.438.598.291 1.044.629 1.34 1.013.295.384.442.697.442.939a.383.383 0 0 1-.14.309.505.505 0 0 1-.335.117h-.324a.534.534 0 0 1-.475-.277c-.288-.427-.616-.75-.983-.97-.367-.221-.94-.331-1.717-.331-.835 0-1.47.17-1.901.512a1.63 1.63 0 0 0-.648 1.344c0 .341.086.625.26.853.172.228.496.437.971.63.475.191 1.167.387 2.074.586 1.339.299 2.282.697 2.83 1.195.547.497.82 1.159.82 1.984a2.77 2.77 0 0 1-.497 1.6c-.33.483-.82.867-1.468 1.152-.648.284-1.426.426-2.333.426z"></path>
                                    <path fill="#FF9400" d="M118.076 25.296a.417.417 0 0 1-.303-.128.407.407 0 0 1-.13-.299l.044-.234 5.357-13.803c.115-.313.345-.47.69-.47h1.383c.346 0 .576.157.691.47l5.357 13.803.043.234a.393.393 0 0 1-.14.299.454.454 0 0 1-.313.128h-1.015a.537.537 0 0 1-.357-.117.565.565 0 0 1-.183-.246l-1.21-3.072h-7.15l-1.188 3.072c-.115.242-.295.363-.54.363h-1.036zm3.39-5.205h5.92l-2.96-7.659-2.96 7.659zm11.886-7.979a.474.474 0 0 1-.497-.49v-1.11a.51.51 0 0 1 .14-.363c.094-.1.213-.149.357-.149h1.274c.144 0 .267.05.367.15.101.099.152.22.152.362v1.11c0 .142-.05.259-.152.351a.524.524 0 0 1-.367.139h-1.274zm.173 13.184a.474.474 0 0 1-.497-.49V14.692a.474.474 0 0 1 .497-.49h.95a.474.474 0 0 1 .497.49v10.112a.474.474 0 0 1-.497.491h-.95zm8.558.213c-1.512 0-2.646-.483-3.402-1.45-.756-.967-1.163-2.19-1.22-3.67l-.022-.64.022-.64c.057-1.465.468-2.684 1.231-3.658.763-.975 1.894-1.462 3.391-1.462 1.498 0 2.664.527 3.5 1.579V10.64a.474.474 0 0 1 .496-.49h.972a.474.474 0 0 1 .497.49v14.165a.474.474 0 0 1-.497.491h-.929a.45.45 0 0 1-.345-.139.495.495 0 0 1-.13-.352v-.917c-.82 1.08-2.009 1.621-3.564 1.621zm.41-1.664c1.009 0 1.765-.33 2.269-.992.504-.661.777-1.447.82-2.357.015-.156.022-.427.022-.81 0-.399-.007-.676-.022-.833-.028-.867-.306-1.617-.831-2.25-.526-.633-1.278-.95-2.257-.95-1.037 0-1.793.32-2.268.96-.476.64-.735 1.48-.778 2.518l-.022.618c0 2.731 1.023 4.096 3.068 4.096z"></path>
                                </g>
                            </g>
                        </svg>