<svg xmlns="http://www.w3.org/2000/svg" width="32" height="32" viewBox="0 0 32 32">
    <path fill="#318BB6" fill-rule="nonzero" d="M29.24.015H2.485A2.489 2.489 0 0 0 0 2.501v26.724a2.49 2.49 0 0 0 2.486 2.486H29.24a2.49 2.49 0 0 0 2.487-2.486V2.501A2.488 2.488 0 0 0 29.239.015zm-1.686 2.83a1.065 1.065 0 1 1 .001 2.13 1.065 1.065 0 0 1 0-2.13zm-3.818 0a1.065 1.065 0 1 1 .001 2.13 1.065 1.065 0 0 1 0-2.13zm5.149 26.025H2.84V7.62h26.044v21.25zM10.42 22.129l-.983.983 1.778 1.777 1.017-1.017a6.38 6.38 0 0 0 2.373.917v1.504h2.513v-1.568a6.394 6.394 0 0 0 2.239-.988l1.152 1.152 1.777-1.777-1.186-1.187a6.393 6.393 0 0 0 .892-2.205h1.699v-2.513h-1.699a6.408 6.408 0 0 0-.892-2.204l1.186-1.187-1.777-1.777-1.152 1.152a6.383 6.383 0 0 0-2.239-.988v-1.568h-2.513v1.504a6.368 6.368 0 0 0-2.373.918l-1.017-1.017-1.777 1.776.983.983a6.39 6.39 0 0 0-1.028 2.409h-1.36v2.513h1.36a6.38 6.38 0 0 0 1.027 2.408zm5.442-7.37a3.705 3.705 0 1 1 0 7.41 3.705 3.705 0 0 1 0-7.41z"/>
</svg>
