<svg xmlns="http://www.w3.org/2000/svg" width="30" height="32" viewBox="0 0 30 32">
    <g fill="none" fill-rule="nonzero">
        <path fill="#318BB6" d="M5.171 5.007c0 .722-.555 1.307-1.24 1.307H1.242C.555 6.314 0 5.73 0 5.007 0 4.285.555 3.7 1.242 3.7H3.93c.685 0 1.241.586 1.241 1.307zm0 7.3c0-.722-.555-1.309-1.24-1.309H1.242c-.687 0-1.242.585-1.242 1.308 0 .722.555 1.308 1.242 1.308H3.93c.685-.002 1.241-.586 1.241-1.308zm0 7.296c0-.722-.555-1.308-1.24-1.308H1.242C.555 18.296 0 18.88 0 19.603c0 .721.555 1.308 1.242 1.308H3.93c.685 0 1.241-.585 1.241-1.308zm0 7.297c0-.72-.555-1.305-1.24-1.305H1.242C.555 25.595 0 26.179 0 26.9c0 .724.555 1.309 1.242 1.309H3.93c.685 0 1.241-.585 1.241-1.309zm24.51-25.472v29.056c0 .787-.639 1.427-1.427 1.427H4.038a1.427 1.427 0 0 1-1.428-1.427v-1.245h1.319c1.225 0 2.222-1.048 2.222-2.336 0-1.287-.997-2.335-2.222-2.335h-1.32V21.94h1.32c1.225 0 2.222-1.048 2.222-2.336 0-1.288-.997-2.334-2.222-2.334h-1.32v-2.628h1.32c1.225 0 2.222-1.048 2.222-2.336 0-1.288-.997-2.336-2.222-2.336h-1.32V7.343h1.32c1.225 0 2.222-1.048 2.222-2.336 0-1.288-.997-2.334-2.222-2.334h-1.32V1.428C2.61.64 3.249 0 4.039 0h24.217c.787 0 1.425.638 1.425 1.428z"/>
        <path fill="#FFF" d="M24.361 12.881c-.843-1.966-2.277-3.397-4.26-4.242A7.821 7.821 0 0 0 16.996 8a7.782 7.782 0 0 0-3.106.639c-1.966.843-3.415 2.273-4.26 4.242A7.785 7.785 0 0 0 9 15.987c0 1.085.206 2.127.63 3.114.845 1.97 2.293 3.408 4.26 4.252.99.425 2.02.638 3.106.638a7.825 7.825 0 0 0 3.105-.638c1.983-.846 3.417-2.285 4.26-4.252.425-.99.639-2.03.639-3.114a7.783 7.783 0 0 0-.639-3.106zM14.336 9.487c-.69.875-1.198 1.986-1.522 3.333h-2.09a7.171 7.171 0 0 1 3.612-3.333zm-4.365 6.5c0-.761.122-1.496.359-2.205h2.292a14.56 14.56 0 0 0 0 4.392h-2.31a7.14 7.14 0 0 1-.341-2.187zm.752 3.15h2.091c.324 1.373.831 2.501 1.522 3.367a7.036 7.036 0 0 1-3.613-3.368zm5.783 3.804c-.569-.166-1.102-.586-1.584-1.268-.48-.682-.848-1.53-1.102-2.537h2.686v3.805zm0-4.767H13.6a15.17 15.17 0 0 1-.175-2.187c0-.735.062-1.47.193-2.205h2.887v4.392zm0-5.354H13.82c.271-.997.64-1.835 1.12-2.51.483-.682.997-1.103 1.566-1.26v3.77zm6.77 0h-2.09c-.324-1.347-.831-2.458-1.522-3.333a7.17 7.17 0 0 1 3.613 3.333zm-5.782-3.77c.569.157 1.083.578 1.566 1.26.48.675.849 1.513 1.12 2.51h-2.686V9.05zm0 4.732h2.887c.131.735.193 1.47.193 2.205 0 .682-.062 1.408-.175 2.187h-2.905v-4.392zm0 9.16v-3.806h2.686c-.263 1.006-.635 1.851-1.111 2.537-.478.688-.997 1.111-1.575 1.268zm2.17-.438c.69-.866 1.198-1.994 1.522-3.368h2.09a7.037 7.037 0 0 1-3.612 3.368zm4.024-4.33h-2.31a14.54 14.54 0 0 0 0-4.392h2.292c.237.709.359 1.444.359 2.205 0 .744-.114 1.478-.341 2.187z"/>
    </g>
</svg>
