<svg xmlns="http://www.w3.org/2000/svg" width="32" height="32" viewBox="0 0 32 32">
    <g fill="#318BB6" fill-rule="nonzero">
        <path d="M9.579 5.609l.661-.662a.936.936 0 0 0-.18-1.464L5.048.476a3.327 3.327 0 0 0-4.07.502 3.327 3.327 0 0 0-.502 4.07l3.007 5.011a.936.936 0 0 0 1.464.18l.662-.661 5.063 5.054 3.964-3.965L9.58 5.61z"/>
        <path d="M31.3 3.726a.936.936 0 0 0-1.506-.259l-2.42 2.42a.956.956 0 0 1-1.324 0 .937.937 0 0 1 0-1.322l2.42-2.42a.936.936 0 0 0-.258-1.507 6.557 6.557 0 0 0-7.455 1.28 6.563 6.563 0 0 0-1.54 6.832L8.75 19.218a6.564 6.564 0 0 0-6.831 1.54 6.56 6.56 0 0 0-1.28 7.454.936.936 0 0 0 1.506.26l2.42-2.421a.937.937 0 0 1 1.323 0 .934.934 0 0 1 0 1.323l-2.42 2.42a.936.936 0 0 0 .258 1.506 6.555 6.555 0 0 0 7.454-1.28 6.56 6.56 0 0 0 1.54-6.831L23.188 12.72c2.357.84 5.032.26 6.832-1.54a6.56 6.56 0 0 0 1.28-7.455z"/>
        <path d="M30.556 24.026c-3.176-3.165-4.917-4.422-8.64-7.318L16.623 22c2.617 3.36 4.202 5.527 7.174 8.5.973.973 2.265 1.426 3.536 1.426.933 0 1.854-.221 2.628-.778a4.702 4.702 0 0 0 1.95-3.435 4.673 4.673 0 0 0-1.356-3.687zm-2.695 3.84c-.372.338-.953.306-1.309-.05l-3.705-3.706c-.357-.356-.39-.937-.05-1.31a.935.935 0 0 1 1.354-.032l3.743 3.743a.935.935 0 0 1-.033 1.354z"/>
    </g>
</svg>
